<svg id="layer2" data-name="layer2" fill="white" xmlns="http://www.w3.org/2000/svg" viewBox="0 0 128 128"><defs><style>.cls-1{fill:white;}</style></defs><title>Fullscreen</title><path class="cls-1" d="M20,52V31.88A10.89,10.89,0,0,1,30.88,21H51V11H30.88A20.91,20.91,0,0,0,10,31.88V52Z"/><path class="cls-1" d="M76,21H96.12A10.89,10.89,0,0,1,107,31.88V52h10V31.88A20.91,20.91,0,0,0,96.12,11H76Z"/><path class="cls-1" d="M107,77V97.12A10.89,10.89,0,0,1,96.12,108H76v10H96.12A20.91,20.91,0,0,0,117,97.12V77Z"/><path class="cls-1" d="M51,108H30.88A10.89,10.89,0,0,1,20,97.12V77H10V97.12A20.91,20.91,0,0,0,30.88,118H51Z"/></svg>