<svg id="圖層_1" data-name="圖層 1" xmlns="http://www.w3.org/2000/svg" viewBox="0 0 128 128"><defs><style>.cls-1{fill:#fff;}</style></defs><title>star h</title><path class="cls-1" d="M121.86,62.2a14,14,0,0,0-7.74-23.84l-23.9-3.48a4,4,0,0,1-3-2.17L76.54,11.05a14,14,0,0,0-25.08,0L40.78,32.71a4,4,0,0,1-3,2.17l-23.9,3.48A14,14,0,0,0,6.14,62.2L23.43,79.06a4,4,0,0,1,1.14,3.52l-4.08,23.8a13.91,13.91,0,0,0,5.56,13.67,14.07,14.07,0,0,0,6.26,2.55c.31,0,.63.08.95.1s.64,0,1,0a13.81,13.81,0,0,0,6.55-1.62l21.38-11.23a4,4,0,0,1,3.7,0l21.38,11.23a13.77,13.77,0,0,0,6.51,1.62,14,14,0,0,0,13.77-16.35l-4.08-23.8a4,4,0,0,1,1.14-3.52Z"/></svg>