<svg id="圖層_1" data-name="圖層 1" xmlns="http://www.w3.org/2000/svg" viewBox="0 0 128 128"><defs><style>.cls-1{fill:#fff;}</style></defs><title>star</title><path class="cls-1" d="M93.74,122.73a13.77,13.77,0,0,1-6.51-1.62L65.85,109.88a4,4,0,0,0-3.7,0L40.77,121.11a14,14,0,0,1-20.28-14.73l4.08-23.8a4,4,0,0,0-1.14-3.52L6.14,62.2a14,14,0,0,1,7.74-23.84l23.9-3.48a4,4,0,0,0,3-2.17L51.46,11.05a14,14,0,0,1,25.08,0L87.22,32.71a4,4,0,0,0,3,2.17l23.9,3.48a14,14,0,0,1,7.74,23.84L104.57,79.06a4,4,0,0,0-1.14,3.52l4.08,23.8a14,14,0,0,1-13.77,16.35ZM64,99.42A14,14,0,0,1,70.5,101l21.38,11.23a4,4,0,0,0,5.77-4.19l-4.08-23.8a14,14,0,0,1,4-12.38L114.88,55a4,4,0,0,0-2.2-6.79l-23.9-3.47a14,14,0,0,1-10.52-7.65L67.57,15.48a4,4,0,0,0-7.14,0L49.75,37.13a14,14,0,0,1-10.53,7.65l-23.9,3.47A4,4,0,0,0,13.12,55L30.41,71.9a14,14,0,0,1,4,12.37l-4.08,23.8a4,4,0,0,0,5.77,4.19L57.5,101A14,14,0,0,1,64,99.42Z"/></svg>